<svg height="512pt" viewBox="-47 0 511 512" width="512pt" xmlns="http://www.w3.org/2000/svg" fill="#FFF"><path d="m329.882812 0h-65.25c-3.988281 0-7.8125 1.585938-10.632812 4.402344l-44.902344 44.902344-44.898437-44.902344c-2.820313-2.816406-6.644531-4.402344-10.632813-4.402344h-65.25c-48.421875 0-87.816406 39.394531-87.816406 87.816406v252.378906c0 8.304688 6.730469 15.035157 15.035156 15.035157h57.746094v141.734375c0 8.304687 6.730469 15.035156 15.035156 15.035156h241.5625c8.304688 0 15.035156-6.730469 15.035156-15.035156v-141.734375h57.746094c8.304688 0 15.035156-6.730469 15.035156-15.035157v-252.378906c.003907-48.421875-39.390624-87.816406-87.8125-87.816406zm-299.3125 325.160156v-237.34375c0-26.644531 18.136719-49.128906 42.710938-55.761718v293.105468zm72.78125 57.257813h46.175782c8.300781 0 15.035156-6.730469 15.035156-15.035157 0-8.300781-6.734375-15.03125-15.035156-15.03125h-46.175782v-322.28125h43.988282l46.722656 46.726563v405.132813h-90.710938zm120.78125 99.511719v-405.132813l46.726563-46.726563h43.988281v86.402344h-65.65625c-8.300781 0-15.035156 6.734375-15.035156 15.035156v79.183594c0 8.304688 6.734375 15.035156 15.035156 15.035156h65.65625v126.625h-47.679687c-8.300781 0-15.035157 6.730469-15.035157 15.03125 0 8.304688 6.734376 15.035157 15.035157 15.035157h47.679687v99.511719zm89.210938-335.386719v49.117187h-49.117188v-49.117187zm74.285156 178.617187h-42.710937v-293.105468c24.574219 6.632812 42.710937 29.117187 42.710937 55.761718zm0 0"/></svg>