<svg width="133" height="133" viewBox="0 0 133 133" fill="none" xmlns="http://www.w3.org/2000/svg">
  <path fill-rule="evenodd" clip-rule="evenodd" d="M133 66.5c0 36.727-29.773 66.5-66.5 66.5C29.7731 133 0 103.227 0 66.5 0 29.7731 29.7731 0 66.5 0 103.227 0 133 29.7731 133 66.5zm-27.056-22.3046c.006-.0312.016-.0621.027-.093.015-.0463.031-.0925.029-.1389L81.5864 67.4869 105.97 90.259c.009-.0924-.002-.1853-.013-.2787-.008-.071-.016-.1424-.016-.2142V44.2342c0-.0129.001-.0259.003-.0388zM77.8597 71.1069l-9.9661 9.5887c-.5044.4852-1.1557.7285-1.8074.7285-.6381 0-1.2763-.2328-1.7771-.6996L54.37 71.4628l-24.5433 23.657c.5968.2144 1.2374.3809 1.9082.3809h68.7031c.996 0 1.93-.3034 2.743-.756L77.8597 71.1069zm25.4563-31.7696L66.0577 75.2277 28.1306 39.843c.9781-.8115 2.2338-1.3437 3.6043-1.3437h68.7031c1.052 0 2.034.3365 2.878.838zM26 89.7654v-44.657l24.4845 22.7949-24.2388 23.3414c-.1279-.4724-.2457-.9666-.2457-1.4793z" fill="#f77ca0"/>
</svg>